# xmcd
# Copyright (C) 1995-1998 Ti Kan
#
# Track frame offsets:
#       150
#       14979
#       32370
#       43620
#
# Disc length: 784 seconds
#
# Revision: 0
# Processed by: cddbd v1.5.2PL0 Copyright (c) Steve Scherf et al.
# Submitted via: CD-Import v1.0
#
DISCID=2b030e04
DTITLE=Tim and Puma Mimi - The Adventures Of Tim and Puma Mimi
DYEAR=04
DGENRE=
TTITLE0=Grey Sky
TTITLE1=Toy Story
TTITLE2=After Party
TTITLE3=Toy Story Remix
EXTD=
EXTT0=
EXTT1=
EXTT2=
EXTT3=
PLAYORDER=
